<svg width="1200" height="800" viewBox="0 0 1200 800" fill="none" xmlns="http://www.w3.org/2000/svg">
  <rect width="1200" height="800" rx="48" fill="#08131A"/>
  <rect x="68" y="68" width="1064" height="664" rx="34" fill="url(#shell)"/>
  <path d="M208 604L364 220L598 220L748 604" stroke="#EAF7FF" stroke-width="18" stroke-linecap="round" stroke-linejoin="round"/>
  <path d="M598 220L860 220L994 604" stroke="#7DE2D1" stroke-width="18" stroke-linecap="round" stroke-linejoin="round"/>
  <rect x="274" y="286" width="120" height="220" rx="22" fill="#16303D"/>
  <rect x="446" y="286" width="120" height="220" rx="22" fill="#1E4252"/>
  <rect x="650" y="286" width="120" height="220" rx="22" fill="#194054"/>
  <rect x="822" y="286" width="120" height="220" rx="22" fill="#132A37"/>
  <rect x="294" y="318" width="80" height="14" rx="7" fill="#FFFFFF" fill-opacity=".72"/>
  <rect x="466" y="318" width="80" height="14" rx="7" fill="#FFD166"/>
  <rect x="670" y="318" width="80" height="14" rx="7" fill="#FFFFFF" fill-opacity=".72"/>
  <rect x="842" y="318" width="80" height="14" rx="7" fill="#FF7A18"/>
  <path d="M174 626C332 574 486 548 616 560C748 572 892 594 1036 626" stroke="#102530" stroke-width="76" stroke-linecap="round"/>
  <text x="176" y="624" fill="#F4F9FF" font-family="Space Grotesk, sans-serif" font-size="68" font-weight="700">GS-Hub</text>
  <text x="178" y="676" fill="#9FC0D4" font-family="Space Grotesk, sans-serif" font-size="28" letter-spacing="3">GLASS ATRIUM / PLACEHOLDER</text>
  <defs>
    <linearGradient id="shell" x1="68" y1="68" x2="1132" y2="732" gradientUnits="userSpaceOnUse">
      <stop stop-color="#0F2531"/>
      <stop offset=".58" stop-color="#0A1922"/>
      <stop offset="1" stop-color="#071219"/>
    </linearGradient>
  </defs>
</svg>
