<svg width="1200" height="800" viewBox="0 0 1200 800" fill="none" xmlns="http://www.w3.org/2000/svg">
  <rect width="1200" height="800" rx="48" fill="#0A1017"/>
  <rect x="68" y="68" width="1064" height="664" rx="34" fill="url(#bg)"/>
  <rect x="140" y="160" width="210" height="420" rx="26" fill="#1B2A36"/>
  <rect x="390" y="120" width="182" height="470" rx="26" fill="#233845"/>
  <rect x="620" y="170" width="132" height="370" rx="26" fill="#172833"/>
  <rect x="786" y="132" width="280" height="452" rx="32" fill="url(#machine)"/>
  <rect x="180" y="216" width="130" height="24" rx="12" fill="#F8B35A"/>
  <rect x="180" y="260" width="96" height="16" rx="8" fill="#E7F2FF" fill-opacity=".68"/>
  <circle cx="926" cy="356" r="114" fill="#111C24" stroke="#7DE2D1" stroke-width="18"/>
  <circle cx="926" cy="356" r="48" fill="#FF7A18"/>
  <path d="M926 214V498M784 356H1068" stroke="#E7F2FF" stroke-width="14" stroke-linecap="round"/>
  <path d="M168 624H1034" stroke="#13202A" stroke-width="86" stroke-linecap="round"/>
  <text x="174" y="626" fill="#F3F8FF" font-family="Space Grotesk, sans-serif" font-size="68" font-weight="700">GS-Hub</text>
  <text x="176" y="676" fill="#9FC0D4" font-family="Space Grotesk, sans-serif" font-size="28" letter-spacing="3">OLD WORKSHOP / PLACEHOLDER</text>
  <defs>
    <linearGradient id="bg" x1="68" y1="68" x2="1132" y2="732" gradientUnits="userSpaceOnUse">
      <stop stop-color="#111A23"/>
      <stop offset="1" stop-color="#0A1117"/>
    </linearGradient>
    <linearGradient id="machine" x1="786" y1="132" x2="1066" y2="584" gradientUnits="userSpaceOnUse">
      <stop stop-color="#27495E"/>
      <stop offset="1" stop-color="#15242E"/>
    </linearGradient>
  </defs>
</svg>

