<svg width="1200" height="800" viewBox="0 0 1200 800" fill="none" xmlns="http://www.w3.org/2000/svg">
  <rect width="1200" height="800" rx="48" fill="#07131D"/>
  <rect x="68" y="68" width="1064" height="664" rx="34" fill="url(#panel)"/>
  <path d="M170 610L366 406L514 512L676 338L846 454L1020 244" stroke="url(#trail)" stroke-width="14" stroke-linecap="round"/>
  <rect x="184" y="178" width="220" height="280" rx="24" fill="url(#towerA)"/>
  <rect x="456" y="132" width="162" height="352" rx="24" fill="url(#towerB)"/>
  <rect x="674" y="206" width="192" height="248" rx="24" fill="url(#towerC)"/>
  <rect x="888" y="152" width="118" height="320" rx="24" fill="url(#towerD)"/>
  <rect x="222" y="224" width="146" height="26" rx="13" fill="#7DE2D1" fill-opacity=".84"/>
  <rect x="222" y="270" width="110" height="18" rx="9" fill="#EDF6FF" fill-opacity=".68"/>
  <rect x="222" y="310" width="148" height="18" rx="9" fill="#EDF6FF" fill-opacity=".68"/>
  <rect x="486" y="194" width="98" height="22" rx="11" fill="#FFB857"/>
  <rect x="486" y="238" width="72" height="14" rx="7" fill="#EDF6FF" fill-opacity=".68"/>
  <rect x="710" y="256" width="108" height="22" rx="11" fill="#FF7A18"/>
  <rect x="710" y="300" width="80" height="14" rx="7" fill="#EDF6FF" fill-opacity=".68"/>
  <rect x="916" y="214" width="58" height="18" rx="9" fill="#7DE2D1"/>
  <path d="M126 626C264 546 456 534 588 576C724 620 874 646 1078 600" stroke="#0F2B3C" stroke-width="72" stroke-linecap="round"/>
  <text x="180" y="594" fill="#EDF6FF" font-family="Space Grotesk, 'Noto Sans SC', sans-serif" font-size="72" font-weight="700">GS-Hub</text>
  <text x="184" y="646" fill="#9FC0D4" font-family="Space Grotesk, 'Noto Sans SC', sans-serif" font-size="28" letter-spacing="3">CYBER ALLEY / DEMO THUMBNAIL</text>
  <defs>
    <linearGradient id="panel" x1="68" y1="68" x2="1068" y2="744" gradientUnits="userSpaceOnUse">
      <stop stop-color="#0D2231"/>
      <stop offset="1" stop-color="#09141E"/>
    </linearGradient>
    <linearGradient id="trail" x1="170" y1="610" x2="1020" y2="244" gradientUnits="userSpaceOnUse">
      <stop stop-color="#FF7A18"/>
      <stop offset=".52" stop-color="#FFD166"/>
      <stop offset="1" stop-color="#7DE2D1"/>
    </linearGradient>
    <linearGradient id="towerA" x1="184" y1="178" x2="404" y2="458" gradientUnits="userSpaceOnUse">
      <stop stop-color="#17384E"/>
      <stop offset="1" stop-color="#0A1A27"/>
    </linearGradient>
    <linearGradient id="towerB" x1="456" y1="132" x2="618" y2="484" gradientUnits="userSpaceOnUse">
      <stop stop-color="#1D4660"/>
      <stop offset="1" stop-color="#0A1A27"/>
    </linearGradient>
    <linearGradient id="towerC" x1="674" y1="206" x2="866" y2="454" gradientUnits="userSpaceOnUse">
      <stop stop-color="#1E3D51"/>
      <stop offset="1" stop-color="#0A1722"/>
    </linearGradient>
    <linearGradient id="towerD" x1="888" y1="152" x2="1006" y2="472" gradientUnits="userSpaceOnUse">
      <stop stop-color="#17384E"/>
      <stop offset="1" stop-color="#08131C"/>
    </linearGradient>
  </defs>
</svg>
